ply
format ascii 1.0
comment UNCALIBRATED AWS RECONSTRUCTION NOT INVENTORY
element vertex 94
property float x
property float y
property float z
end_header
2.580670 0.818534 5.294482
2.757899 2.576672 5.657858
2.501831 0.329558 5.176146
2.338178 -0.995532 4.858762
2.490711 0.458618 5.222728
2.490711 0.458618 5.222728
2.668396 2.236058 5.704384
0.494488 2.517089 5.599384
2.529629 1.272185 5.458807
2.529629 1.272185 5.458807
0.758418 -0.193438 4.508403
2.572702 2.609473 5.627853
2.193485 -1.418134 4.837836
2.392190 2.453015 5.509019
2.489230 2.203867 5.784400
-2.093086 -2.115797 6.445952
-2.093086 -2.115797 6.445952
0.963658 1.631061 5.051798
0.314916 2.430392 5.655945
0.963524 1.633181 4.890507
0.260100 0.225141 5.010376
0.242590 -0.492715 4.765228
-2.030473 1.561585 6.879520
1.918284 -2.124898 4.784917
-2.030478 1.868253 6.979448
0.214483 -2.188910 5.777066
0.923704 -0.315838 4.393918
1.676868 0.797843 4.230706
0.637434 1.258973 5.037897
0.160288 0.841803 5.211294
-1.896009 1.886526 6.894394
-1.866333 1.964177 6.929210
0.685120 2.520749 5.458537
1.667590 1.089886 4.341921
-1.711928 -2.246003 6.598506
-1.688457 -2.340188 6.553988
1.538483 0.154604 4.117854
1.606348 0.705416 4.314175
1.722121 2.245499 4.707094
2.051869 3.720105 8.789037
-1.481010 -3.191772 6.505984
-1.491970 2.027593 6.704797
-1.458500 -2.753367 6.600483
-1.444544 -2.836002 6.573521
1.839567 -0.691289 5.252022
6.197940 1.697210 17.856337
1.069164 -0.143615 4.355452
1.070882 -0.084127 4.358349
-1.477152 -1.606940 6.941646
0.563841 -0.355851 4.615671
6.265938 2.043231 18.345054
1.639104 2.837476 4.919996
-0.237115 2.324625 5.913013
1.683992 -1.072261 5.241741
-1.130434 2.086004 6.452920
2.531976 2.848335 7.902427
8.118503 10.571912 31.380437
8.212061 7.899152 26.284684
-0.352590 -1.297848 6.374905
-0.963459 -1.446266 6.688128
-0.842063 -3.221283 6.105389
-0.842063 -3.221283 6.105389
1.275724 1.882392 4.816275
1.262807 0.697100 4.461950
1.420724 -1.958760 5.124335
2.781011 2.562896 5.659344
-0.661823 2.145472 6.141150
2.749666 2.193900 5.644748
-0.537326 -1.420009 6.456054
-0.537326 -1.420009 6.456054
-0.527485 -1.417112 6.459476
2.730206 2.248905 5.665321
2.704209 2.543562 5.711428
2.539056 1.226811 5.442941
1.314990 2.475742 5.001662
-1.003213 -1.483824 6.717848
2.470179 0.909585 5.400438
2.470179 0.909585 5.400438
-1.061248 0.780644 6.067097
2.427968 1.429760 5.554942
2.427968 1.429760 5.554942
-1.499533 -1.656973 6.933066
1.539684 0.648362 4.309372
-0.040941 1.694043 5.555858
-0.040768 2.305606 5.773778
2.404305 1.481080 5.587656
0.309920 -0.114102 4.890351
-1.724783 1.939177 6.820264
0.169397 2.427537 5.701833
0.167552 1.726970 5.476976
0.167552 1.726970 5.476976
1.001060 1.314238 4.830029
-2.159928 1.957083 7.034680
-2.139235 1.894567 7.101942
