ply
format ascii 1.0
comment UNCALIBRATED AWS RECONSTRUCTION NOT INVENTORY
element vertex 76
property float x
property float y
property float z
end_header
3.262169 1.034717 4.683992
3.564201 3.328652 5.112705
3.152211 0.415231 4.565222
2.939861 -1.252109 4.277202
3.142662 0.578684 4.612789
3.142662 0.578684 4.612789
3.455881 2.894907 5.166956
0.613580 3.119873 4.858901
3.221516 1.620020 4.865007
3.221516 1.620020 4.865007
3.315861 3.361948 5.073469
2.769338 -1.790943 4.276454
3.048181 3.125208 4.912291
3.239338 2.867117 5.266163
-2.903587 -2.942607 6.271171
-2.903587 -2.942607 6.271171
1.176844 1.990495 4.316057
0.393018 3.023169 4.925645
1.163460 1.970000 4.129336
-2.729359 2.099559 6.478829
2.440362 -2.703630 4.261611
-2.730243 2.512616 6.572188
0.284635 -2.914028 5.383796
1.999919 0.952108 3.536415
0.784667 1.543922 4.325286
-2.538942 2.526716 6.465978
-2.499360 2.630901 6.497525
0.841925 3.095646 4.692803
1.985360 1.298579 3.623113
-2.380311 -3.123781 6.424328
-2.346390 -3.253621 6.378409
1.853894 0.186206 3.475548
1.927392 0.846783 3.626761
2.038429 2.661062 3.906208
-2.070308 -4.461182 6.366061
-1.974742 2.684440 6.215398
-2.035870 -3.840585 6.445651
-2.014648 -3.952723 6.414771
2.345806 -0.882148 4.690518
1.939054 3.361041 4.080538
-0.297740 2.939868 5.237042
2.155225 -1.373186 4.698481
-1.476293 2.726153 5.906230
3.947447 4.442260 8.627804
-0.480361 -1.753509 6.032423
-1.156031 -4.424746 5.870278
-1.156031 -4.424746 5.870278
1.525558 2.251976 4.033469
1.525264 0.841843 3.771703
1.830119 -2.523933 4.621942
3.595118 3.311761 5.115328
-0.848323 2.756228 5.525964
3.546924 2.829002 5.092099
-0.733721 -1.927920 6.139443
-0.733721 -1.927920 6.139443
-0.720746 -1.924876 6.145013
3.526453 2.903788 5.117417
3.509588 3.299573 5.183167
3.230903 1.561000 4.846956
1.570523 2.959153 4.185114
-1.384706 -2.039860 6.469997
3.138464 1.155663 4.802524
3.138464 1.155663 4.802524
-1.383528 1.019108 5.557268
3.107806 1.829933 4.976302
3.107806 1.829933 4.976302
-2.093356 -2.306261 6.760884
1.848958 0.778918 3.625185
-0.048792 2.892929 5.073449
3.082971 1.899004 5.014570
-2.298820 2.585187 6.366293
0.212165 2.151806 4.779750
0.212165 2.151806 4.779750
1.214146 1.592514 4.096583
-2.911206 2.638032 6.640178
-2.895679 2.564207 6.729192
