ply
format ascii 1.0
comment UNCALIBRATED AWS RECONSTRUCTION NOT INVENTORY
element vertex 100
property float x
property float y
property float z
end_header
2.028144 0.643431 5.830443
2.147678 2.007138 6.171601
1.974265 0.259915 5.723674
1.868127 -0.796486 5.440030
1.961985 0.361195 5.764770
1.961985 0.361195 5.764770
2.069353 1.734853 6.197766
0.387812 1.983027 6.175673
1.975973 0.994176 5.974481
1.975973 0.994176 5.974481
0.608870 -0.155395 5.070685
2.007724 2.036804 6.150524
1.754107 -1.135385 5.421349
3.809685 0.480313 12.288802
1.876883 1.924631 6.051546
3.905298 0.903301 12.681615
1.923373 1.703682 6.261555
3.972319 1.160876 13.064384
-1.548209 -1.566491 6.680343
-1.548209 -1.566491 6.680343
0.769383 1.302656 5.648579
0.244949 1.907623 6.214753
0.775375 1.314549 5.510972
0.203822 0.177755 5.533941
0.191180 -0.390582 5.289899
-1.498512 1.149990 7.085697
1.537607 -1.704699 5.373680
-1.496240 1.373328 7.176377
0.166134 -1.679390 6.205067
4.010456 2.758828 14.041706
0.745124 -0.254808 4.962754
3.829331 2.137508 13.505662
1.377091 0.654652 4.857047
0.506268 1.001950 5.613263
0.124102 0.661914 5.735047
-1.402600 1.391882 7.115235
-1.379822 1.448181 7.146952
0.542287 1.999745 6.062466
1.367324 0.892718 4.976808
-1.262575 -1.660482 6.827435
-1.247265 -1.732951 6.792646
1.261538 0.126849 4.721898
1.313042 0.576241 4.931231
1.410846 1.836854 5.389194
3.489366 1.814730 13.397713
1.392040 2.526939 8.358431
-1.098386 -2.376557 6.780045
-1.115124 1.510165 6.986646
-1.077333 -2.041392 6.849235
-1.068442 -2.105691 6.830752
1.444549 -0.543343 5.777765
3.190770 0.875426 12.926181
0.865315 -0.116206 4.933896
0.866933 -0.068088 4.938406
-1.077519 -1.176151 7.109040
0.449729 -0.284246 5.162399
3.172033 1.036760 13.058339
1.343584 2.322009 5.635665
-0.187087 1.800138 6.408800
3.341748 2.869957 14.501829
1.322766 -0.842818 5.767532
-0.855666 1.571594 6.802214
1.782498 2.008499 7.803627
3.247469 3.136175 14.620326
-0.261994 -0.971627 6.680193
-0.709553 -1.069427 6.920431
-0.633815 -2.437723 6.467515
-0.633815 -2.437723 6.467515
1.034369 1.525112 5.462654
1.025238 0.565648 5.068063
1.121576 -1.546749 5.664966
2.165032 1.995879 6.171614
-0.509823 1.640238 6.570066
2.137470 1.706220 6.147758
-0.398701 -1.059672 6.743095
-0.398701 -1.059672 6.743095
-0.391284 -1.057289 6.745562
2.121220 1.748010 6.166724
2.099903 1.975888 6.212758
1.984516 0.959269 5.960724
1.066726 2.006482 5.674875
-0.737923 -1.095795 6.942688
1.932680 0.711905 5.920524
1.932680 0.711905 5.920524
-0.806658 0.591660 6.431154
1.889376 1.113137 6.056325
1.889376 1.113137 6.056325
-1.094096 -1.212996 7.101755
1.258183 0.529439 4.924488
-0.034804 1.323407 6.074925
-0.034884 1.796774 6.298138
1.868675 1.151674 6.084479
0.244021 -0.090167 5.416201
-1.281049 1.436018 7.065489
0.129994 1.900923 6.249821
0.129086 1.354520 6.013153
0.129086 1.354520 6.013153
0.804536 1.056338 5.435098
-1.588550 1.435903 7.218522
-1.567878 1.385613 7.264909
